<svg width="22" height="19" viewBox="0 0 22 19" fill="none" xmlns="http://www.w3.org/2000/svg">
<path d="M11.0127 18.0022C11.0042 18.0024 10.996 18.0024 10.9875 18.0022C10.8912 18.0022 10.7937 17.9734 10.7089 17.9132C10.4415 17.7234 4.1285 13.2207 1.80253 9.42237C1.79941 9.41724 1.79651 9.41211 1.79339 9.40698C1.27435 8.546 1 7.55745 1 6.54681C1 3.48835 3.48835 1 6.54681 1C8.3176 1 9.96193 1.84134 11 3.23875C12.0381 1.84134 13.6826 1 15.4532 1C18.5117 1 21 3.48835 21 6.54681C21 7.55745 20.7256 8.546 20.2066 9.40698C20.2037 9.41211 20.2008 9.41724 20.1975 9.42237C17.8717 13.2207 11.5587 17.7234 11.2911 17.9132C11.2068 17.9734 11.1093 18.0022 11.0127 18.0022ZM2.63362 8.93188C4.60047 12.1318 9.76631 16.028 11.0002 16.9329C12.2341 16.028 17.4 12.1318 19.3668 8.9321C19.3691 8.92853 19.3713 8.92474 19.3735 8.92095C19.8067 8.20741 20.0358 7.38659 20.0358 6.54681C20.0358 4.0201 17.9801 1.96469 15.4536 1.96469C13.7718 1.96469 12.2279 2.88366 11.4242 4.36315C11.3399 4.51861 11.1771 4.61519 11.0004 4.61519C10.8238 4.61519 10.661 4.51861 10.5767 4.36315C9.773 2.88366 8.22905 1.96469 6.54725 1.96469C4.02054 1.96469 1.96514 4.02032 1.96514 6.54681C1.96514 7.38659 2.19399 8.20741 2.62737 8.92095C2.62916 8.92452 2.63139 8.92831 2.63362 8.93188Z" fill="#3C3C3C" stroke="#3C3C3C" stroke-width="0.5"/>
</svg>
